<?xml version="1.0" encoding="UTF-8" standalone="no"?>
<!DOCTYPE svg PUBLIC "-//W3C//DTD SVG 1.1//EN"
 "http://www.w3.org/Graphics/SVG/1.1/DTD/svg11.dtd">
<!-- Generated by graphviz version 2.40.1 (20161225.0304)
 -->
<!-- Title: %3 Pages: 1 -->
<svg width="739pt" height="702pt"
 viewBox="0.00 0.00 739.00 701.53" xmlns="http://www.w3.org/2000/svg" xmlns:xlink="http://www.w3.org/1999/xlink">
<g id="graph0" class="graph" transform="scale(1 1) rotate(0) translate(4 697.5273)">
<title>%3</title>
<polygon fill="#ffffff" stroke="transparent" points="-4,4 -4,-697.5273 735,-697.5273 735,4 -4,4"/>
<!-- 7&#45;&gt;2 -->
<g id="59" class="edge">
<title>7&#45;&gt;2</title>
<g id="a_59"><a xlink:title="from: IV Antibiotics&#10;to: Admission NC&#10;amount: 489&#10;mean_duration: 1.08 hours&#10;median_duration: 5.87 minutes&#10;max_duration: 1.76 days&#10;min_duration: 22s">
<path fill="none" stroke="#000000" stroke-width="4.8534" stroke-opacity="0.627451" d="M313,-398.5933C313,-385.7239 313,-368.3907 313,-354.4266"/>
<polygon fill="#000000" fill-opacity="0.627451" stroke="#000000" stroke-width="4.8534" stroke-opacity="0.627451" points="315.1234,-354.062 313,-349.0621 310.8767,-354.0621 315.1234,-354.062"/>
</a>
</g>
<g id="a_59&#45;label"><a xlink:title="from: IV Antibiotics&#10;to: Admission NC&#10;amount: 489&#10;mean_duration: 1.08 hours&#10;median_duration: 5.87 minutes&#10;max_duration: 1.76 days&#10;min_duration: 22s">
<text text-anchor="middle" x="334" y="-369.7347" font-family="Times,serif" font-size="14.00" fill="#212121"> &#160;&#160;489 &#160;&#160;</text>
</a>
</g>
</g>
<!-- 7&#45;&gt;10 -->
<g id="65" class="edge">
<title>7&#45;&gt;10</title>
<g id="a_65"><a xlink:title="from: IV Antibiotics&#10;to: Leucocytes&#10;amount: 53&#10;mean_duration: 1.18 hours&#10;median_duration: 13.78 minutes&#10;max_duration: 10.81 hours&#10;min_duration: 1s">
<path fill="none" stroke="#000000" stroke-width="1.4106" stroke-opacity="0.627451" d="M269.1343,-411.8235C240.1109,-407.0203 202.0171,-397.9127 172,-380.9347 160.0341,-374.1667 89.2982,-306.6485 84,-293.9632 66.1056,-251.1189 36.4783,-254.2667 127,-170.658 139.7856,-158.8488 175.5416,-147.4185 210.1183,-138.5722"/>
<polygon fill="#000000" fill-opacity="0.627451" stroke="#000000" stroke-width="1.4106" stroke-opacity="0.627451" points="210.7895,-140.2076 215.2083,-137.286 209.932,-136.8143 210.7895,-140.2076"/>
</a>
</g>
<g id="a_65&#45;label"><a xlink:title="from: IV Antibiotics&#10;to: Leucocytes&#10;amount: 53&#10;mean_duration: 1.18 hours&#10;median_duration: 13.78 minutes&#10;max_duration: 10.81 hours&#10;min_duration: 1s">
<text text-anchor="middle" x="101.5" y="-282.7632" font-family="Times,serif" font-size="14.00" fill="#212121"> &#160;&#160;53 &#160;&#160;</text>
</a>
</g>
</g>
<!-- 5&#45;&gt;7 -->
<g id="47" class="edge">
<title>5&#45;&gt;7</title>
<g id="a_47"><a xlink:title="from: ER Sepsis Triage&#10;to: IV Antibiotics&#10;amount: 75&#10;mean_duration: 31.22 minutes&#10;median_duration: 3.47 minutes&#10;max_duration: 6.08 hours&#10;min_duration: 0s">
<path fill="none" stroke="#000000" stroke-width="1.5843" stroke-opacity="0.627451" d="M219.2368,-484.7702C238.0116,-471.1871 263.6907,-452.6088 283.4287,-438.3289"/>
<polygon fill="#000000" fill-opacity="0.627451" stroke="#000000" stroke-width="1.5843" stroke-opacity="0.627451" points="284.7743,-439.5153 287.7995,-435.1666 282.7227,-436.6796 284.7743,-439.5153"/>
</a>
</g>
<g id="a_47&#45;label"><a xlink:title="from: ER Sepsis Triage&#10;to: IV Antibiotics&#10;amount: 75&#10;mean_duration: 31.22 minutes&#10;median_duration: 3.47 minutes&#10;max_duration: 6.08 hours&#10;min_duration: 0s">
<text text-anchor="middle" x="278.5" y="-455.7347" font-family="Times,serif" font-size="14.00" fill="#212121"> &#160;&#160;75 &#160;&#160;</text>
</a>
</g>
</g>
<!-- 5&#45;&gt;9 -->
<g id="49" class="edge">
<title>5&#45;&gt;9</title>
<g id="a_49"><a xlink:title="from: ER Sepsis Triage&#10;to: LacticAcid&#10;amount: 148&#10;mean_duration: 15.75 minutes&#10;median_duration: 12.09 minutes&#10;max_duration: 2.07 hours&#10;min_duration: 20s">
<path fill="none" stroke="#000000" stroke-width="2.1607" stroke-opacity="0.627451" d="M253.7086,-498.8086C385.3635,-488.7032 689,-460.6575 689,-416.9347 689,-416.9347 689,-416.9347 689,-121.658 689,-82.0882 574.2274,-48.0533 506.1342,-31.3428"/>
<polygon fill="#000000" fill-opacity="0.627451" stroke="#000000" stroke-width="2.1607" stroke-opacity="0.627451" points="506.1821,-29.5535 500.9102,-30.0723 505.355,-32.9544 506.1821,-29.5535"/>
</a>
</g>
<g id="a_49&#45;label"><a xlink:title="from: ER Sepsis Triage&#10;to: LacticAcid&#10;amount: 148&#10;mean_duration: 15.75 minutes&#10;median_duration: 12.09 minutes&#10;max_duration: 2.07 hours&#10;min_duration: 20s">
<text text-anchor="middle" x="710" y="-282.7632" font-family="Times,serif" font-size="14.00" fill="#212121"> &#160;&#160;148 &#160;&#160;</text>
</a>
</g>
</g>
<!-- 5&#45;&gt;3 -->
<g id="44" class="edge">
<title>5&#45;&gt;3</title>
<g id="a_44"><a xlink:title="from: ER Sepsis Triage&#10;to: CRP&#10;amount: 192&#10;mean_duration: 17.99 minutes&#10;median_duration: 14.55 minutes&#10;max_duration: 1.37 hours&#10;min_duration: 10s">
<path fill="none" stroke="#000000" stroke-width="2.5082" stroke-opacity="0.627451" d="M195.206,-484.8047C198.4529,-448.4255 210.1348,-365.6881 251,-311.9632 256.372,-304.9006 292.0622,-282.758 324.2437,-263.6065"/>
<polygon fill="#000000" fill-opacity="0.627451" stroke="#000000" stroke-width="2.5082" stroke-opacity="0.627451" points="325.1486,-265.1045 328.554,-261.0467 323.3614,-262.0952 325.1486,-265.1045"/>
</a>
</g>
<g id="a_44&#45;label"><a xlink:title="from: ER Sepsis Triage&#10;to: CRP&#10;amount: 192&#10;mean_duration: 17.99 minutes&#10;median_duration: 14.55 minutes&#10;max_duration: 1.37 hours&#10;min_duration: 10s">
<text text-anchor="middle" x="242" y="-369.7347" font-family="Times,serif" font-size="14.00" fill="#212121"> &#160;&#160;192 &#160;&#160;</text>
</a>
</g>
</g>
<!-- 5&#45;&gt;10 -->
<g id="50" class="edge">
<title>5&#45;&gt;10</title>
<g id="a_50"><a xlink:title="from: ER Sepsis Triage&#10;to: Leucocytes&#10;amount: 269&#10;mean_duration: 18.57 minutes&#10;median_duration: 14.05 minutes&#10;max_duration: 3.15 hours&#10;min_duration: 27s">
<path fill="none" stroke="#000000" stroke-width="3.1162" stroke-opacity="0.627451" d="M134.182,-491.7415C94.6182,-480.4154 50,-458.4413 50,-416.9347 50,-416.9347 50,-416.9347 50,-232.3106 50,-194.0753 75.3776,-186.8821 110,-170.658 141.4068,-155.9407 178.0664,-144.9103 209.9265,-137.0796"/>
<polygon fill="#000000" fill-opacity="0.627451" stroke="#000000" stroke-width="3.1162" stroke-opacity="0.627451" points="210.5503,-138.7291 214.9971,-135.8502 209.7255,-135.3276 210.5503,-138.7291"/>
</a>
</g>
<g id="a_50&#45;label"><a xlink:title="from: ER Sepsis Triage&#10;to: Leucocytes&#10;amount: 269&#10;mean_duration: 18.57 minutes&#10;median_duration: 14.05 minutes&#10;max_duration: 3.15 hours&#10;min_duration: 27s">
<text text-anchor="middle" x="71" y="-326.2489" font-family="Times,serif" font-size="14.00" fill="#212121"> &#160;&#160;269 &#160;&#160;</text>
</a>
</g>
</g>
<!-- 4&#45;&gt;6 -->
<g id="38" class="edge">
<title>4&#45;&gt;6</title>
<g id="a_38"><a xlink:title="from: ER Registration&#10;to: ER Triage&#10;amount: 970&#10;mean_duration: 10.6 minutes&#10;median_duration: 7.91 minutes&#10;max_duration: 1.45 hours&#10;min_duration: 41s">
<path fill="none" stroke="#000000" stroke-width="8.6514" stroke-opacity="0.627451" d="M194,-657.1492C194,-644.2347 194,-626.8103 194,-612.8436"/>
<polygon fill="#000000" fill-opacity="0.627451" stroke="#000000" stroke-width="8.6514" stroke-opacity="0.627451" points="197.7851,-612.4829 194,-607.483 190.2151,-612.4831 197.7851,-612.4829"/>
</a>
</g>
<g id="a_38&#45;label"><a xlink:title="from: ER Registration&#10;to: ER Triage&#10;amount: 970&#10;mean_duration: 10.6 minutes&#10;median_duration: 7.91 minutes&#10;max_duration: 1.45 hours&#10;min_duration: 41s">
<text text-anchor="middle" x="215" y="-628.1337" font-family="Times,serif" font-size="14.00" fill="#212121"> &#160;&#160;970 &#160;&#160;</text>
</a>
</g>
</g>
<!-- 6&#45;&gt;5 -->
<g id="53" class="edge">
<title>6&#45;&gt;5</title>
<g id="a_53"><a xlink:title="from: ER Triage&#10;to: ER Sepsis Triage&#10;amount: 904&#10;mean_duration: 2.9 minutes&#10;median_duration: 25s&#10;max_duration: 11.22 hours&#10;min_duration: 7s">
<path fill="none" stroke="#000000" stroke-width="8.1303" stroke-opacity="0.627451" d="M194,-570.9473C194,-558.0332 194,-540.6095 194,-526.6432"/>
<polygon fill="#000000" fill-opacity="0.627451" stroke="#000000" stroke-width="8.1303" stroke-opacity="0.627451" points="197.5571,-526.2828 194,-521.2829 190.4431,-526.2829 197.5571,-526.2828"/>
</a>
</g>
<g id="a_53&#45;label"><a xlink:title="from: ER Triage&#10;to: ER Sepsis Triage&#10;amount: 904&#10;mean_duration: 2.9 minutes&#10;median_duration: 25s&#10;max_duration: 11.22 hours&#10;min_duration: 7s">
<text text-anchor="middle" x="215" y="-541.9223" font-family="Times,serif" font-size="14.00" fill="#212121"> &#160;&#160;904 &#160;&#160;</text>
</a>
</g>
</g>
<!-- 6&#45;&gt;10 -->
<g id="57" class="edge">
<title>6&#45;&gt;10</title>
<g id="a_57"><a xlink:title="from: ER Triage&#10;to: Leucocytes&#10;amount: 52&#10;mean_duration: 53.21 minutes&#10;median_duration: 12.9 minutes&#10;max_duration: 1.35 days&#10;min_duration: 32s">
<path fill="none" stroke="#000000" stroke-width="1.4027" stroke-opacity="0.627451" d="M155.6718,-580.4242C99.1343,-566.3092 0,-536.7514 0,-503.0285 0,-503.0285 0,-503.0285 0,-232.3106 0,-227.6197 75.6402,-171.7693 78,-170.658 119.3278,-151.1938 168.9684,-139.1523 209.6079,-131.8796"/>
<polygon fill="#000000" fill-opacity="0.627451" stroke="#000000" stroke-width="1.4027" stroke-opacity="0.627451" points="210.4037,-133.5167 215.0258,-130.9286 209.7985,-130.0694 210.4037,-133.5167"/>
</a>
</g>
<g id="a_57&#45;label"><a xlink:title="from: ER Triage&#10;to: Leucocytes&#10;amount: 52&#10;mean_duration: 53.21 minutes&#10;median_duration: 12.9 minutes&#10;max_duration: 1.35 days&#10;min_duration: 32s">
<text text-anchor="middle" x="17.5" y="-369.7347" font-family="Times,serif" font-size="14.00" fill="#212121"> &#160;&#160;52 &#160;&#160;</text>
</a>
</g>
</g>
<!-- 2&#45;&gt;2 -->
<g id="8" class="edge">
<title>2&#45;&gt;2</title>
<g id="a_8"><a xlink:title="from: Admission NC&#10;to: Admission NC&#10;amount: 174&#10;mean_duration: 15.67 hours&#10;median_duration: 14.8 hours&#10;max_duration: 4.91 days&#10;min_duration: 34s">
<path fill="none" stroke="#000000" stroke-width="2.366" stroke-opacity="0.627451" d="M365.7362,-337.999C376.2316,-337.1492 383.7158,-334.6325 383.7158,-330.4489 383.7158,-326.9844 378.5832,-324.663 370.8583,-323.4848"/>
<polygon fill="#000000" fill-opacity="0.627451" stroke="#000000" stroke-width="2.366" stroke-opacity="0.627451" points="370.9027,-321.7285 365.7362,-322.8989 370.5049,-325.2058 370.9027,-321.7285"/>
</a>
</g>
<g id="a_8&#45;label"><a xlink:title="from: Admission NC&#10;to: Admission NC&#10;amount: 174&#10;mean_duration: 15.67 hours&#10;median_duration: 14.8 hours&#10;max_duration: 4.91 days&#10;min_duration: 34s">
<text text-anchor="middle" x="404.7158" y="-326.2489" font-family="Times,serif" font-size="14.00" fill="#212121"> &#160;&#160;174 &#160;&#160;</text>
</a>
</g>
</g>
<!-- 2&#45;&gt;3 -->
<g id="9" class="edge">
<title>2&#45;&gt;3</title>
<g id="a_9"><a xlink:title="from: Admission NC&#10;to: CRP&#10;amount: 369&#10;mean_duration: 1.4 days&#10;median_duration: 1 days&#10;max_duration: 1.11 weeks&#10;min_duration: 0s">
<path fill="none" stroke="#000000" stroke-width="3.9058" stroke-opacity="0.627451" d="M307.4213,-311.7268C305.5213,-301.7683 304.9745,-289.6216 310,-279.9632 313.5682,-273.1055 318.6253,-267.0299 324.3909,-261.7096"/>
<polygon fill="#000000" fill-opacity="0.627451" stroke="#000000" stroke-width="3.9058" stroke-opacity="0.627451" points="325.8626,-262.7488 328.4861,-258.1466 323.5653,-260.1083 325.8626,-262.7488"/>
</a>
</g>
<g id="a_9&#45;label"><a xlink:title="from: Admission NC&#10;to: CRP&#10;amount: 369&#10;mean_duration: 1.4 days&#10;median_duration: 1 days&#10;max_duration: 1.11 weeks&#10;min_duration: 0s">
<text text-anchor="middle" x="331" y="-282.7632" font-family="Times,serif" font-size="14.00" fill="#212121"> &#160;&#160;369 &#160;&#160;</text>
</a>
</g>
</g>
<!-- 2&#45;&gt;10 -->
<g id="15" class="edge">
<title>2&#45;&gt;10</title>
<g id="a_15"><a xlink:title="from: Admission NC&#10;to: Leucocytes&#10;amount: 407&#10;mean_duration: 1.37 days&#10;median_duration: 1.05 days&#10;max_duration: 6.88 days&#10;min_duration: 0s">
<path fill="none" stroke="#000000" stroke-width="4.2059" stroke-opacity="0.627451" d="M277.0382,-311.7888C258.7298,-300.1607 238.2245,-283.3316 228,-261.9632 216.6234,-238.1869 219.7394,-227.6879 228,-202.658 233.4675,-186.0912 243.775,-170.1443 254.324,-156.8466"/>
<polygon fill="#000000" fill-opacity="0.627451" stroke="#000000" stroke-width="4.2059" stroke-opacity="0.627451" points="255.8799,-157.8494 257.6005,-152.8071 253.0217,-155.5312 255.8799,-157.8494"/>
</a>
</g>
<g id="a_15&#45;label"><a xlink:title="from: Admission NC&#10;to: Leucocytes&#10;amount: 407&#10;mean_duration: 1.37 days&#10;median_duration: 1.05 days&#10;max_duration: 6.88 days&#10;min_duration: 0s">
<text text-anchor="middle" x="249" y="-228.1106" font-family="Times,serif" font-size="14.00" fill="#212121"> &#160;&#160;407 &#160;&#160;</text>
</a>
</g>
</g>
<!-- 9&#45;&gt;7 -->
<g id="85" class="edge">
<title>9&#45;&gt;7</title>
<g id="a_85"><a xlink:title="from: LacticAcid&#10;to: IV Antibiotics&#10;amount: 89&#10;mean_duration: 1.64 hours&#10;median_duration: 1.64 hours&#10;max_duration: 8.63 hours&#10;min_duration: 20s">
<path fill="none" stroke="#000000" stroke-width="1.6949" stroke-opacity="0.627451" d="M500.8822,-32.9843C517.0824,-39.0426 534.9082,-47.4667 549,-58.658 595.8047,-95.8287 614.0857,-127.6908 596,-184.658 561.079,-294.6532 531.296,-333.6992 426,-380.9347 405.4778,-390.1409 381.8935,-398.0454 361.5975,-404.0829"/>
<polygon fill="#000000" fill-opacity="0.627451" stroke="#000000" stroke-width="1.6949" stroke-opacity="0.627451" points="361.0861,-402.4091 356.7829,-405.4986 362.0735,-405.7669 361.0861,-402.4091"/>
</a>
</g>
<g id="a_85&#45;label"><a xlink:title="from: LacticAcid&#10;to: IV Antibiotics&#10;amount: 89&#10;mean_duration: 1.64 hours&#10;median_duration: 1.64 hours&#10;max_duration: 8.63 hours&#10;min_duration: 20s">
<text text-anchor="middle" x="606.5" y="-228.1106" font-family="Times,serif" font-size="14.00" fill="#212121"> &#160;&#160;89 &#160;&#160;</text>
</a>
</g>
</g>
<!-- 9&#45;&gt;2 -->
<g id="80" class="edge">
<title>9&#45;&gt;2</title>
<g id="a_80"><a xlink:title="from: LacticAcid&#10;to: Admission NC&#10;amount: 101&#10;mean_duration: 4.17 hours&#10;median_duration: 3.7 hours&#10;max_duration: 16.87 hours&#10;min_duration: 8.82 minutes">
<path fill="none" stroke="#000000" stroke-width="1.7896" stroke-opacity="0.627451" d="M500.8728,-39.8562C521.2754,-51.4499 543.5258,-68.3004 555,-90.658 567.5817,-115.1734 561.75,-125.9419 555,-152.658 541.4769,-206.1814 537.6138,-225.6875 496,-261.9632 460.6376,-292.7894 410.0785,-310.2962 371.0605,-319.8783"/>
<polygon fill="#000000" fill-opacity="0.627451" stroke="#000000" stroke-width="1.7896" stroke-opacity="0.627451" points="370.3311,-318.2535 365.8772,-321.1215 371.1475,-321.657 370.3311,-318.2535"/>
</a>
</g>
<g id="a_80&#45;label"><a xlink:title="from: LacticAcid&#10;to: Admission NC&#10;amount: 101&#10;mean_duration: 4.17 hours&#10;median_duration: 3.7 hours&#10;max_duration: 16.87 hours&#10;min_duration: 8.82 minutes">
<text text-anchor="middle" x="571" y="-173.458" font-family="Times,serif" font-size="14.00" fill="#212121"> &#160;&#160;101 &#160;&#160;</text>
</a>
</g>
</g>
<!-- 9&#45;&gt;9 -->
<g id="87" class="edge">
<title>9&#45;&gt;9</title>
<g id="a_87"><a xlink:title="from: LacticAcid&#10;to: LacticAcid&#10;amount: 83&#10;mean_duration: 15.29 hours&#10;median_duration: 17.2 hours&#10;max_duration: 1.25 days&#10;min_duration: 1.12 hours">
<path fill="none" stroke="#000000" stroke-width="1.6475" stroke-opacity="0.627451" d="M500.778,-28.4158C511.0643,-27.7512 518.653,-25.0555 518.653,-20.329 518.653,-16.4148 513.4487,-13.8934 505.818,-12.7648"/>
<polygon fill="#000000" fill-opacity="0.627451" stroke="#000000" stroke-width="1.6475" stroke-opacity="0.627451" points="505.9319,-11.0174 500.778,-12.2421 505.5708,-14.4987 505.9319,-11.0174"/>
</a>
</g>
<g id="a_87&#45;label"><a xlink:title="from: LacticAcid&#10;to: LacticAcid&#10;amount: 83&#10;mean_duration: 15.29 hours&#10;median_duration: 17.2 hours&#10;max_duration: 1.25 days&#10;min_duration: 1.12 hours">
<text text-anchor="middle" x="536.153" y="-16.129" font-family="Times,serif" font-size="14.00" fill="#212121"> &#160;&#160;83 &#160;&#160;</text>
</a>
</g>
</g>
<!-- 9&#45;&gt;3 -->
<g id="81" class="edge">
<title>9&#45;&gt;3</title>
<g id="a_81"><a xlink:title="from: LacticAcid&#10;to: CRP&#10;amount: 404&#10;mean_duration: 3.7 hours&#10;median_duration: 0s&#10;max_duration: 3 days&#10;min_duration: 0s">
<path fill="none" stroke="#000000" stroke-width="4.1822" stroke-opacity="0.627451" d="M474.8152,-40.5553C485.2589,-53.8055 497.4585,-72.0618 503,-90.658 510.8694,-117.0659 513.5451,-127.1999 503,-152.658 490.5725,-182.6606 460.0207,-202.4395 432.2341,-214.7835"/>
<polygon fill="#000000" fill-opacity="0.627451" stroke="#000000" stroke-width="4.1822" stroke-opacity="0.627451" points="431.3087,-213.19 427.4434,-216.8517 432.7592,-216.5497 431.3087,-213.19"/>
</a>
</g>
<g id="a_81&#45;label"><a xlink:title="from: LacticAcid&#10;to: CRP&#10;amount: 404&#10;mean_duration: 3.7 hours&#10;median_duration: 0s&#10;max_duration: 3 days&#10;min_duration: 0s">
<text text-anchor="middle" x="530" y="-117.458" font-family="Times,serif" font-size="14.00" fill="#212121"> &#160;&#160;404 &#160;&#160;</text>
</a>
</g>
</g>
<!-- 9&#45;&gt;10 -->
<g id="88" class="edge">
<title>9&#45;&gt;10</title>
<g id="a_88"><a xlink:title="from: LacticAcid&#10;to: Leucocytes&#10;amount: 564&#10;mean_duration: 3.11 hours&#10;median_duration: 0s&#10;max_duration: 3.67 days&#10;min_duration: 0s">
<path fill="none" stroke="#000000" stroke-width="5.4456" stroke-opacity="0.627451" d="M423.2105,-40.5885C400.7297,-54.0675 370.6491,-72.1032 344.5685,-87.7406"/>
<polygon fill="#000000" fill-opacity="0.627451" stroke="#000000" stroke-width="5.4456" stroke-opacity="0.627451" points="343.1477,-85.8146 340.0846,-90.4291 345.598,-89.9012 343.1477,-85.8146"/>
</a>
</g>
<g id="a_88&#45;label"><a xlink:title="from: LacticAcid&#10;to: Leucocytes&#10;amount: 564&#10;mean_duration: 3.11 hours&#10;median_duration: 0s&#10;max_duration: 3.67 days&#10;min_duration: 0s">
<text text-anchor="middle" x="413" y="-61.458" font-family="Times,serif" font-size="14.00" fill="#212121"> &#160;&#160;564 &#160;&#160;</text>
</a>
</g>
</g>
<!-- 3&#45;&gt;7 -->
<g id="26" class="edge">
<title>3&#45;&gt;7</title>
<g id="a_26"><a xlink:title="from: CRP&#10;to: IV Antibiotics&#10;amount: 81&#10;mean_duration: 1.66 hours&#10;median_duration: 1.48 hours&#10;max_duration: 4.96 hours&#10;min_duration: 0s">
<path fill="none" stroke="#000000" stroke-width="1.6317" stroke-opacity="0.627451" d="M409.3272,-262.1994C430.4951,-286.1566 451.7803,-320.3708 435,-348.9347 419.1589,-375.8997 388.314,-392.9542 361.6038,-403.2398"/>
<polygon fill="#000000" fill-opacity="0.627451" stroke="#000000" stroke-width="1.6317" stroke-opacity="0.627451" points="360.741,-401.6939 356.6691,-405.0825 361.9654,-404.9728 360.741,-401.6939"/>
</a>
</g>
<g id="a_26&#45;label"><a xlink:title="from: CRP&#10;to: IV Antibiotics&#10;amount: 81&#10;mean_duration: 1.66 hours&#10;median_duration: 1.48 hours&#10;max_duration: 4.96 hours&#10;min_duration: 0s">
<text text-anchor="middle" x="458.5" y="-326.2489" font-family="Times,serif" font-size="14.00" fill="#212121"> &#160;&#160;81 &#160;&#160;</text>
</a>
</g>
</g>
<!-- 3&#45;&gt;2 -->
<g id="21" class="edge">
<title>3&#45;&gt;2</title>
<g id="a_21"><a xlink:title="from: CRP&#10;to: Admission NC&#10;amount: 187&#10;mean_duration: 8.38 hours&#10;median_duration: 4 hours&#10;max_duration: 1.04 weeks&#10;min_duration: 5s">
<path fill="none" stroke="#000000" stroke-width="2.4687" stroke-opacity="0.627451" d="M370.8518,-262.049C367.4244,-272.7043 362.5927,-284.4286 356,-293.9632 352.4329,-299.1221 347.9583,-303.9838 343.2539,-308.3741"/>
<polygon fill="#000000" fill-opacity="0.627451" stroke="#000000" stroke-width="2.4687" stroke-opacity="0.627451" points="341.8208,-307.3082 339.2629,-311.9472 344.1554,-309.9158 341.8208,-307.3082"/>
</a>
</g>
<g id="a_21&#45;label"><a xlink:title="from: CRP&#10;to: Admission NC&#10;amount: 187&#10;mean_duration: 8.38 hours&#10;median_duration: 4 hours&#10;max_duration: 1.04 weeks&#10;min_duration: 5s">
<text text-anchor="middle" x="384" y="-282.7632" font-family="Times,serif" font-size="14.00" fill="#212121"> &#160;&#160;187 &#160;&#160;</text>
</a>
</g>
</g>
<!-- 3&#45;&gt;9 -->
<g id="28" class="edge">
<title>3&#45;&gt;9</title>
<g id="a_28"><a xlink:title="from: CRP&#10;to: LacticAcid&#10;amount: 627&#10;mean_duration: 1.02 hours&#10;median_duration: 0s&#10;max_duration: 1.07 days&#10;min_duration: 0s">
<path fill="none" stroke="#000000" stroke-width="5.943" stroke-opacity="0.627451" d="M403.7639,-202.4088C408.1196,-196.7018 412.3927,-190.6379 416,-184.658 442.671,-140.4446 452.0437,-79.5651 455.3002,-45.6881"/>
<polygon fill="#000000" fill-opacity="0.627451" stroke="#000000" stroke-width="5.943" stroke-opacity="0.627451" points="457.9094,-45.7042 455.772,-40.4896 452.7305,-45.234 457.9094,-45.7042"/>
</a>
</g>
<g id="a_28&#45;label"><a xlink:title="from: CRP&#10;to: LacticAcid&#10;amount: 627&#10;mean_duration: 1.02 hours&#10;median_duration: 0s&#10;max_duration: 1.07 days&#10;min_duration: 0s">
<text text-anchor="middle" x="469" y="-117.458" font-family="Times,serif" font-size="14.00" fill="#212121"> &#160;&#160;627 &#160;&#160;</text>
</a>
</g>
</g>
<!-- 3&#45;&gt;3 -->
<g id="22" class="edge">
<title>3&#45;&gt;3</title>
<g id="a_22"><a xlink:title="from: CRP&#10;to: CRP&#10;amount: 316&#10;mean_duration: 1.99 days&#10;median_duration: 2 days&#10;max_duration: 1.43 weeks&#10;min_duration: 0s">
<path fill="none" stroke="#000000" stroke-width="3.4873" stroke-opacity="0.627451" d="M427.3765,-242.1087C437.8446,-241.1137 445.4042,-237.8477 445.4042,-232.3106 445.4042,-227.7252 440.2199,-224.6972 432.4927,-223.2268"/>
<polygon fill="#000000" fill-opacity="0.627451" stroke="#000000" stroke-width="3.4873" stroke-opacity="0.627451" points="432.5705,-221.4707 427.3765,-222.5125 432.0865,-224.9371 432.5705,-221.4707"/>
</a>
</g>
<g id="a_22&#45;label"><a xlink:title="from: CRP&#10;to: CRP&#10;amount: 316&#10;mean_duration: 1.99 days&#10;median_duration: 2 days&#10;max_duration: 1.43 weeks&#10;min_duration: 0s">
<text text-anchor="middle" x="466.4042" y="-228.1106" font-family="Times,serif" font-size="14.00" fill="#212121"> &#160;&#160;316 &#160;&#160;</text>
</a>
</g>
</g>
<!-- 3&#45;&gt;10 -->
<g id="29" class="edge">
<title>3&#45;&gt;10</title>
<g id="a_29"><a xlink:title="from: CRP&#10;to: Leucocytes&#10;amount: 1443&#10;mean_duration: 12.41 hours&#10;median_duration: 0s&#10;max_duration: 2.16 weeks&#10;min_duration: 0s">
<path fill="none" stroke="#000000" stroke-width="12.3864" stroke-opacity="0.627451" d="M328.656,-206.5337C320.1599,-200.3096 312.112,-193.0018 306,-184.658 300.2185,-176.7654 296.2901,-167.0651 293.6222,-157.6625"/>
<polygon fill="#000000" fill-opacity="0.627451" stroke="#000000" stroke-width="12.3864" stroke-opacity="0.627451" points="298.8516,-156.2406 292.3388,-152.7839 288.3702,-158.9981 298.8516,-156.2406"/>
</a>
</g>
<g id="a_29&#45;label"><a xlink:title="from: CRP&#10;to: Leucocytes&#10;amount: 1443&#10;mean_duration: 12.41 hours&#10;median_duration: 0s&#10;max_duration: 2.16 weeks&#10;min_duration: 0s">
<text text-anchor="middle" x="330.5" y="-173.458" font-family="Times,serif" font-size="14.00" fill="#212121"> &#160;&#160;1443 &#160;&#160;</text>
</a>
</g>
</g>
<!-- 10&#45;&gt;7 -->
<g id="98" class="edge">
<title>10&#45;&gt;7</title>
<g id="a_98"><a xlink:title="from: Leucocytes&#10;to: IV Antibiotics&#10;amount: 73&#10;mean_duration: 1.97 hours&#10;median_duration: 2.03 hours&#10;max_duration: 5.56 hours&#10;min_duration: 20s">
<path fill="none" stroke="#000000" stroke-width="1.5685" stroke-opacity="0.627451" d="M248.2717,-152.6775C242.3985,-158.2836 236.7386,-164.3615 232,-170.658 198.085,-215.7228 181.9197,-241.2578 202,-293.9632 218.2007,-336.4857 256.7753,-373.419 283.8795,-395.4292"/>
<polygon fill="#000000" fill-opacity="0.627451" stroke="#000000" stroke-width="1.5685" stroke-opacity="0.627451" points="282.796,-396.8035 287.7912,-398.5672 284.9861,-394.0734 282.796,-396.8035"/>
</a>
</g>
<g id="a_98&#45;label"><a xlink:title="from: Leucocytes&#10;to: IV Antibiotics&#10;amount: 73&#10;mean_duration: 1.97 hours&#10;median_duration: 2.03 hours&#10;max_duration: 5.56 hours&#10;min_duration: 20s">
<text text-anchor="middle" x="219.5" y="-282.7632" font-family="Times,serif" font-size="14.00" fill="#212121"> &#160;&#160;73 &#160;&#160;</text>
</a>
</g>
</g>
<!-- 10&#45;&gt;2 -->
<g id="93" class="edge">
<title>10&#45;&gt;2</title>
<g id="a_93"><a xlink:title="from: Leucocytes&#10;to: Admission NC&#10;amount: 153&#10;mean_duration: 10.91 hours&#10;median_duration: 4 hours&#10;max_duration: 6.25 days&#10;min_duration: 1.05 minutes">
<path fill="none" stroke="#000000" stroke-width="2.2002" stroke-opacity="0.627451" d="M280.4219,-152.7586C274.6759,-181.4906 269.1414,-225.1629 278,-261.9632 281.8686,-278.0342 290.1805,-294.5774 297.7335,-307.3779"/>
<polygon fill="#000000" fill-opacity="0.627451" stroke="#000000" stroke-width="2.2002" stroke-opacity="0.627451" points="296.3906,-308.5398 300.4722,-311.9167 299.3874,-306.7315 296.3906,-308.5398"/>
</a>
</g>
<g id="a_93&#45;label"><a xlink:title="from: Leucocytes&#10;to: Admission NC&#10;amount: 153&#10;mean_duration: 10.91 hours&#10;median_duration: 4 hours&#10;max_duration: 6.25 days&#10;min_duration: 1.05 minutes">
<text text-anchor="middle" x="299" y="-228.1106" font-family="Times,serif" font-size="14.00" fill="#212121"> &#160;&#160;153 &#160;&#160;</text>
</a>
</g>
</g>
<!-- 10&#45;&gt;9 -->
<g id="100" class="edge">
<title>10&#45;&gt;9</title>
<g id="a_100"><a xlink:title="from: Leucocytes&#10;to: LacticAcid&#10;amount: 435&#10;mean_duration: 1.62 hours&#10;median_duration: 0s&#10;max_duration: 1.02 days&#10;min_duration: 0s">
<path fill="none" stroke="#000000" stroke-width="4.427" stroke-opacity="0.627451" d="M299.7817,-90.6155C305.5249,-79.1288 313.5014,-66.9094 324,-58.658 348.0111,-39.7863 380.9607,-30.2057 408.0561,-25.3421"/>
<polygon fill="#000000" fill-opacity="0.627451" stroke="#000000" stroke-width="4.427" stroke-opacity="0.627451" points="408.4426,-27.241 413.0438,-24.4877 407.7885,-23.423 408.4426,-27.241"/>
</a>
</g>
<g id="a_100&#45;label"><a xlink:title="from: Leucocytes&#10;to: LacticAcid&#10;amount: 435&#10;mean_duration: 1.62 hours&#10;median_duration: 0s&#10;max_duration: 1.02 days&#10;min_duration: 0s">
<text text-anchor="middle" x="345" y="-61.458" font-family="Times,serif" font-size="14.00" fill="#212121"> &#160;&#160;435 &#160;&#160;</text>
</a>
</g>
</g>
<!-- 10&#45;&gt;3 -->
<g id="94" class="edge">
<title>10&#45;&gt;3</title>
<g id="a_94"><a xlink:title="from: Leucocytes&#10;to: CRP&#10;amount: 1774&#10;mean_duration: 5.75 hours&#10;median_duration: 0s&#10;max_duration: 1.45 weeks&#10;min_duration: 0s">
<path fill="none" stroke="#000000" stroke-width="15" stroke-opacity="0.627451" d="M337.863,-152.8701C344.1809,-158.2614 350.1277,-164.2248 355,-170.658 361.0498,-178.6458 365.6539,-188.3973 369.0929,-197.7664"/>
<polygon fill="#000000" fill-opacity="0.627451" stroke="#000000" stroke-width="15" stroke-opacity="0.627451" points="362.943,-200.0611 370.7865,-202.6196 375.3351,-195.7364 362.943,-200.0611"/>
</a>
</g>
<g id="a_94&#45;label"><a xlink:title="from: Leucocytes&#10;to: CRP&#10;amount: 1774&#10;mean_duration: 5.75 hours&#10;median_duration: 0s&#10;max_duration: 1.45 weeks&#10;min_duration: 0s">
<text text-anchor="middle" x="387.5" y="-173.458" font-family="Times,serif" font-size="14.00" fill="#212121"> &#160;&#160;1774 &#160;&#160;</text>
</a>
</g>
</g>
<!-- 10&#45;&gt;10 -->
<g id="101" class="edge">
<title>10&#45;&gt;10</title>
<g id="a_101"><a xlink:title="from: Leucocytes&#10;to: Leucocytes&#10;amount: 454&#10;mean_duration: 1.46 days&#10;median_duration: 1 days&#10;max_duration: 1.99 weeks&#10;min_duration: 0s">
<path fill="none" stroke="#000000" stroke-width="4.577" stroke-opacity="0.627451" d="M360.8574,-131.1326C371.4499,-129.6287 378.5859,-126.4705 378.5859,-121.658 378.5859,-117.6726 373.6921,-114.8218 365.9942,-113.1054"/>
<polygon fill="#000000" fill-opacity="0.627451" stroke="#000000" stroke-width="4.577" stroke-opacity="0.627451" points="366.1326,-111.0959 360.8574,-112.1833 365.425,-115.0378 366.1326,-111.0959"/>
</a>
</g>
<g id="a_101&#45;label"><a xlink:title="from: Leucocytes&#10;to: Leucocytes&#10;amount: 454&#10;mean_duration: 1.46 days&#10;median_duration: 1 days&#10;max_duration: 1.99 weeks&#10;min_duration: 0s">
<text text-anchor="middle" x="399.5859" y="-117.458" font-family="Times,serif" font-size="14.00" fill="#212121"> &#160;&#160;454 &#160;&#160;</text>
</a>
</g>
</g>
<!-- 7 -->
<g id="node1" class="node">
<title>7</title>
<g id="a_node1"><a xlink:title="name: IV Antibiotics&#10;category: IV Antibiotics&#10;amount: 822&#10;inbound: 822&#10;outbound: 735&#10;id: 7">
<path fill="#c386a7" stroke="#880e4f" d="M344.6279,-434.9347C344.6279,-434.9347 281.3721,-434.9347 281.3721,-434.9347 275.3721,-434.9347 269.3721,-428.9347 269.3721,-422.9347 269.3721,-422.9347 269.3721,-410.9347 269.3721,-410.9347 269.3721,-404.9347 275.3721,-398.9347 281.3721,-398.9347 281.3721,-398.9347 344.6279,-398.9347 344.6279,-398.9347 350.6279,-398.9347 356.6279,-404.9347 356.6279,-410.9347 356.6279,-410.9347 356.6279,-422.9347 356.6279,-422.9347 356.6279,-428.9347 350.6279,-434.9347 344.6279,-434.9347"/>
<text text-anchor="middle" x="313" y="-419.4192" font-family="Helvetica,sans-Serif" font-size="12.42" fill="#212121">IV Antibiotics</text>
<text text-anchor="middle" x="313" y="-406.9964" font-family="Helvetica,sans-Serif" font-size="12.42" fill="#212121">(822)</text>
</a>
</g>
</g>
<!-- 5 -->
<g id="node2" class="node">
<title>5</title>
<g id="a_node2"><a xlink:title="name: ER Sepsis Triage&#10;category: ER Sepsis Triage&#10;amount: 1048&#10;inbound: 1041&#10;outbound: 999&#10;id: 5">
<path fill="#9e9391" stroke="#3e2723" d="M241.6704,-521.2166C241.6704,-521.2166 146.3296,-521.2166 146.3296,-521.2166 140.3296,-521.2166 134.3296,-515.2166 134.3296,-509.2166 134.3296,-509.2166 134.3296,-496.8404 134.3296,-496.8404 134.3296,-490.8404 140.3296,-484.8404 146.3296,-484.8404 146.3296,-484.8404 241.6704,-484.8404 241.6704,-484.8404 247.6704,-484.8404 253.6704,-490.8404 253.6704,-496.8404 253.6704,-496.8404 253.6704,-509.2166 253.6704,-509.2166 253.6704,-515.2166 247.6704,-521.2166 241.6704,-521.2166"/>
<text text-anchor="middle" x="194" y="-505.6473" font-family="Helvetica,sans-Serif" font-size="13.09" fill="#212121">ER Sepsis Triage</text>
<text text-anchor="middle" x="194" y="-492.5534" font-family="Helvetica,sans-Serif" font-size="13.09" fill="#212121">(1048)</text>
</a>
</g>
</g>
<!-- 4 -->
<g id="node3" class="node">
<title>4</title>
<g id="a_node3"><a xlink:title="name: ER Registration&#10;category: ER Registration&#10;amount: 1049&#10;inbound: 55&#10;outbound: 1049&#10;id: 4">
<path fill="#fabf8b" stroke="#f57f17" d="M236.7163,-693.6246C236.7163,-693.6246 151.2837,-693.6246 151.2837,-693.6246 145.2837,-693.6246 139.2837,-687.6246 139.2837,-681.6246 139.2837,-681.6246 139.2837,-669.2364 139.2837,-669.2364 139.2837,-663.2364 145.2837,-657.2364 151.2837,-657.2364 151.2837,-657.2364 236.7163,-657.2364 236.7163,-657.2364 242.7163,-657.2364 248.7163,-663.2364 248.7163,-669.2364 248.7163,-669.2364 248.7163,-681.6246 248.7163,-681.6246 248.7163,-687.6246 242.7163,-693.6246 236.7163,-693.6246"/>
<text text-anchor="middle" x="194" y="-678.0499" font-family="Helvetica,sans-Serif" font-size="13.10" fill="#212121">ER Registration</text>
<text text-anchor="middle" x="194" y="-664.9531" font-family="Helvetica,sans-Serif" font-size="13.10" fill="#212121">(1049)</text>
</a>
</g>
</g>
<!-- 6 -->
<g id="node4" class="node">
<title>6</title>
<g id="a_node4"><a xlink:title="name: ER Triage&#10;category: ER Triage&#10;amount: 1052&#10;inbound: 1046&#10;outbound: 1050&#10;id: 6">
<path fill="#8c91be" stroke="#1a237e" d="M220.2851,-607.4401C220.2851,-607.4401 167.7149,-607.4401 167.7149,-607.4401 161.7149,-607.4401 155.7149,-601.4401 155.7149,-595.4401 155.7149,-595.4401 155.7149,-583.016 155.7149,-583.016 155.7149,-577.016 161.7149,-571.016 167.7149,-571.016 167.7149,-571.016 220.2851,-571.016 220.2851,-571.016 226.2851,-571.016 232.2851,-577.016 232.2851,-583.016 232.2851,-583.016 232.2851,-595.4401 232.2851,-595.4401 232.2851,-601.4401 226.2851,-607.4401 220.2851,-607.4401"/>
<text text-anchor="middle" x="194" y="-591.8492" font-family="Helvetica,sans-Serif" font-size="13.11" fill="#212121">ER Triage</text>
<text text-anchor="middle" x="194" y="-578.7435" font-family="Helvetica,sans-Serif" font-size="13.11" fill="#212121">(1052)</text>
</a>
</g>
</g>
<!-- 2 -->
<g id="node5" class="node">
<title>2</title>
<g id="a_node5"><a xlink:title="name: Admission NC&#10;category: Admission NC&#10;amount: 1180&#10;inbound: 1180&#10;outbound: 1166&#10;id: 2">
<path fill="#db8d8d" stroke="#b71c1c" d="M353.9326,-348.9204C353.9326,-348.9204 272.0674,-348.9204 272.0674,-348.9204 266.0674,-348.9204 260.0674,-342.9204 260.0674,-336.9204 260.0674,-336.9204 260.0674,-323.9774 260.0674,-323.9774 260.0674,-317.9774 266.0674,-311.9774 272.0674,-311.9774 272.0674,-311.9774 353.9326,-311.9774 353.9326,-311.9774 359.9326,-311.9774 365.9326,-317.9774 365.9326,-323.9774 365.9326,-323.9774 365.9326,-336.9204 365.9326,-336.9204 365.9326,-342.9204 359.9326,-348.9204 353.9326,-348.9204"/>
<text text-anchor="middle" x="313" y="-333.1461" font-family="Helvetica,sans-Serif" font-size="13.49" fill="#212121">Admission NC</text>
<text text-anchor="middle" x="313" y="-319.6603" font-family="Helvetica,sans-Serif" font-size="13.49" fill="#212121">(1180)</text>
</a>
</g>
</g>
<!-- 9 -->
<g id="node6" class="node">
<title>9</title>
<g id="a_node6"><a xlink:title="name: LacticAcid&#10;category: LacticAcid&#10;amount: 1464&#10;inbound: 1464&#10;outbound: 1440&#10;id: 9">
<path fill="#ffb77f" stroke="#ff6f00" d="M488.8065,-40.4884C488.8065,-40.4884 425.1935,-40.4884 425.1935,-40.4884 419.1935,-40.4884 413.1935,-34.4884 413.1935,-28.4884 413.1935,-28.4884 413.1935,-12.1696 413.1935,-12.1696 413.1935,-6.1696 419.1935,-.1696 425.1935,-.1696 425.1935,-.1696 488.8065,-.1696 488.8065,-.1696 494.8065,-.1696 500.8065,-6.1696 500.8065,-12.1696 500.8065,-12.1696 500.8065,-28.4884 500.8065,-28.4884 500.8065,-34.4884 494.8065,-40.4884 488.8065,-40.4884"/>
<text text-anchor="middle" x="457" y="-23.1948" font-family="Helvetica,sans-Serif" font-size="14.33" fill="#212121">LacticAcid</text>
<text text-anchor="middle" x="457" y="-8.8658" font-family="Helvetica,sans-Serif" font-size="14.33" fill="#212121">(1464)</text>
</a>
</g>
</g>
<!-- 3 -->
<g id="node7" class="node">
<title>3</title>
<g id="a_node7"><a xlink:title="name: CRP&#10;category: CRP&#10;amount: 3257&#10;inbound: 3247&#10;outbound: 3216&#10;id: 3">
<path fill="#8dae8f" stroke="#1b5e20" d="M415.3085,-262.1166C415.3085,-262.1166 340.6915,-262.1166 340.6915,-262.1166 334.6915,-262.1166 328.6915,-256.1166 328.6915,-250.1166 328.6915,-250.1166 328.6915,-214.5046 328.6915,-214.5046 328.6915,-208.5046 334.6915,-202.5046 340.6915,-202.5046 340.6915,-202.5046 415.3085,-202.5046 415.3085,-202.5046 421.3085,-202.5046 427.3085,-208.5046 427.3085,-214.5046 427.3085,-214.5046 427.3085,-250.1166 427.3085,-250.1166 427.3085,-256.1166 421.3085,-262.1166 415.3085,-262.1166"/>
<text text-anchor="middle" x="378" y="-236.2411" font-family="Helvetica,sans-Serif" font-size="19.65" fill="#212121">CRP</text>
<text text-anchor="middle" x="378" y="-216.5885" font-family="Helvetica,sans-Serif" font-size="19.65" fill="#212121">(3257)</text>
</a>
</g>
</g>
<!-- 10 -->
<g id="node8" class="node">
<title>10</title>
<g id="a_node8"><a xlink:title="name: Leucocytes&#10;category: Leucocytes&#10;amount: 3374&#10;inbound: 3356&#10;outbound: 3330&#10;id: 10">
<path fill="#f2a87f" stroke="#e65100" d="M348.672,-152.658C348.672,-152.658 227.328,-152.658 227.328,-152.658 221.328,-152.658 215.328,-146.658 215.328,-140.658 215.328,-140.658 215.328,-102.658 215.328,-102.658 215.328,-96.658 221.328,-90.658 227.328,-90.658 227.328,-90.658 348.672,-90.658 348.672,-90.658 354.672,-90.658 360.672,-96.658 360.672,-102.658 360.672,-102.658 360.672,-140.658 360.672,-140.658 360.672,-146.658 354.672,-152.658 348.672,-152.658"/>
<text text-anchor="middle" x="288" y="-125.658" font-family="Helvetica,sans-Serif" font-size="20.00" fill="#212121">Leucocytes</text>
<text text-anchor="middle" x="288" y="-105.658" font-family="Helvetica,sans-Serif" font-size="20.00" fill="#212121">(3374)</text>
</a>
</g>
</g>
</g>
</svg>
