<?xml version="1.0" encoding="UTF-8" standalone="no"?>
<!DOCTYPE svg PUBLIC "-//W3C//DTD SVG 1.1//EN"
 "http://www.w3.org/Graphics/SVG/1.1/DTD/svg11.dtd">
<!-- Generated by graphviz version 2.40.1 (20161225.0304)
 -->
<!-- Title: %3 Pages: 1 -->
<svg width="148pt" height="242pt"
 viewBox="0.00 0.00 148.00 242.00" xmlns="http://www.w3.org/2000/svg" xmlns:xlink="http://www.w3.org/1999/xlink">
<g id="graph0" class="graph" transform="scale(1 1) rotate(0) translate(4 238)">
<title>%3</title>
<polygon fill="#ffffff" stroke="transparent" points="-4,4 -4,-238 144,-238 144,4 -4,4"/>
<!-- 1&#45;&gt;2 -->
<g id="1" class="edge">
<title>1&#45;&gt;2</title>
<g id="a_1"><a xlink:title="from: a&#10;to: b&#10;amount: 2&#10;mean_duration: 23.5 hours&#10;median_duration: 23.5 hours&#10;max_duration: 1 days&#10;min_duration: 23 hours">
<path fill="none" stroke="#000000" stroke-width="15" stroke-opacity="0.627451" d="M63,-171.9474C63,-157.5299 63,-140.676 63,-127.3606"/>
<polygon fill="#000000" fill-opacity="0.627451" stroke="#000000" stroke-width="15" stroke-opacity="0.627451" points="69.5626,-127.2589 63,-122.2591 56.4376,-127.2592 69.5626,-127.2589"/>
</a>
</g>
<g id="a_1&#45;label"><a xlink:title="from: a&#10;to: b&#10;amount: 2&#10;mean_duration: 23.5 hours&#10;median_duration: 23.5 hours&#10;max_duration: 1 days&#10;min_duration: 23 hours">
<text text-anchor="middle" x="77" y="-142.8" font-family="Times,serif" font-size="14.00" fill="#212121"> &#160;&#160;2 &#160;&#160;</text>
</a>
</g>
</g>
<!-- 1&#45;&gt;3 -->
<g id="2" class="edge">
<title>1&#45;&gt;3</title>
<g id="a_2"><a xlink:title="from: a&#10;to: c&#10;amount: 1&#10;mean_duration: 1 days&#10;median_duration: 1 days&#10;max_duration: 1 days&#10;min_duration: 1 days">
<path fill="none" stroke="#000000" stroke-opacity="0.627451" d="M35.3897,-171.8366C24.6208,-157.6583 13.5442,-140.0347 8,-122 -.2899,-95.0339 5.1842,-62.4466 10.7578,-41.0218"/>
<polygon fill="#000000" fill-opacity="0.627451" stroke="#000000" stroke-opacity="0.627451" points="12.4747,-41.3765 12.0932,-36.0928 9.0965,-40.4612 12.4747,-41.3765"/>
</a>
</g>
<g id="a_2&#45;label"><a xlink:title="from: a&#10;to: c&#10;amount: 1&#10;mean_duration: 1 days&#10;median_duration: 1 days&#10;max_duration: 1 days&#10;min_duration: 1 days">
<text text-anchor="middle" x="22" y="-99.8" font-family="Times,serif" font-size="14.00" fill="#212121"> &#160;&#160;1 &#160;&#160;</text>
</a>
</g>
</g>
<!-- 1&#45;&gt;4 -->
<g id="3" class="edge">
<title>1&#45;&gt;4</title>
<g id="a_3"><a xlink:title="from: a&#10;to: d&#10;amount: 1&#10;mean_duration: 1 days&#10;median_duration: 1 days&#10;max_duration: 1 days&#10;min_duration: 1 days">
<path fill="none" stroke="#000000" stroke-opacity="0.627451" d="M86.149,-171.9315C89.5769,-166.196 92.7179,-160.089 95,-154 110.7095,-112.0839 118.2285,-97.3321 107,-54 105.841,-49.5272 103.9926,-45.0185 101.8768,-40.777"/>
<polygon fill="#000000" fill-opacity="0.627451" stroke="#000000" stroke-opacity="0.627451" points="103.3866,-39.8889 99.4958,-36.2938 100.2955,-41.5306 103.3866,-39.8889"/>
</a>
</g>
<g id="a_3&#45;label"><a xlink:title="from: a&#10;to: d&#10;amount: 1&#10;mean_duration: 1 days&#10;median_duration: 1 days&#10;max_duration: 1 days&#10;min_duration: 1 days">
<text text-anchor="middle" x="126" y="-99.8" font-family="Times,serif" font-size="14.00" fill="#212121"> &#160;&#160;1 &#160;&#160;</text>
</a>
</g>
</g>
<!-- 2&#45;&gt;3 -->
<g id="4" class="edge">
<title>2&#45;&gt;3</title>
<g id="a_4"><a xlink:title="from: b&#10;to: c&#10;amount: 1&#10;mean_duration: 1 days&#10;median_duration: 1 days&#10;max_duration: 1 days&#10;min_duration: 1 days">
<path fill="none" stroke="#000000" stroke-opacity="0.627451" d="M51.3852,-85.9275C47.9035,-80.2681 44.1705,-73.9463 41,-68 36.3725,-59.321 31.7477,-49.5374 27.8716,-40.9409"/>
<polygon fill="#000000" fill-opacity="0.627451" stroke="#000000" stroke-opacity="0.627451" points="29.4366,-40.1536 25.8,-36.3017 26.2408,-41.5807 29.4366,-40.1536"/>
</a>
</g>
<g id="a_4&#45;label"><a xlink:title="from: b&#10;to: c&#10;amount: 1&#10;mean_duration: 1 days&#10;median_duration: 1 days&#10;max_duration: 1 days&#10;min_duration: 1 days">
<text text-anchor="middle" x="55" y="-56.8" font-family="Times,serif" font-size="14.00" fill="#212121"> &#160;&#160;1 &#160;&#160;</text>
</a>
</g>
</g>
<!-- 2&#45;&gt;4 -->
<g id="5" class="edge">
<title>2&#45;&gt;4</title>
<g id="a_5"><a xlink:title="from: b&#10;to: d&#10;amount: 1&#10;mean_duration: 1 days&#10;median_duration: 1 days&#10;max_duration: 1 days&#10;min_duration: 1 days">
<path fill="none" stroke="#000000" stroke-opacity="0.627451" d="M68.0898,-85.7616C71.7172,-72.7634 76.6225,-55.186 80.5281,-41.191"/>
<polygon fill="#000000" fill-opacity="0.627451" stroke="#000000" stroke-opacity="0.627451" points="82.2591,-41.4985 81.9176,-36.2121 78.8879,-40.5577 82.2591,-41.4985"/>
</a>
</g>
<g id="a_5&#45;label"><a xlink:title="from: b&#10;to: d&#10;amount: 1&#10;mean_duration: 1 days&#10;median_duration: 1 days&#10;max_duration: 1 days&#10;min_duration: 1 days">
<text text-anchor="middle" x="90" y="-56.8" font-family="Times,serif" font-size="14.00" fill="#212121"> &#160;&#160;1 &#160;&#160;</text>
</a>
</g>
</g>
<!-- 1 -->
<g id="node1" class="node">
<title>1</title>
<g id="a_node1"><a xlink:title="name: a&#10;category: campaign&#10;amount: 4&#10;inbound: 0&#10;outbound: 4&#10;id: 1">
<path fill="#86a3d0" stroke="#0d47a1" d="M85.4448,-234C85.4448,-234 40.5552,-234 40.5552,-234 34.5552,-234 28.5552,-228 28.5552,-222 28.5552,-222 28.5552,-184 28.5552,-184 28.5552,-178 34.5552,-172 40.5552,-172 40.5552,-172 85.4448,-172 85.4448,-172 91.4448,-172 97.4448,-178 97.4448,-184 97.4448,-184 97.4448,-222 97.4448,-222 97.4448,-228 91.4448,-234 85.4448,-234"/>
<text text-anchor="middle" x="63" y="-207" font-family="Helvetica,sans-Serif" font-size="20.00" fill="#212121">a</text>
<text text-anchor="middle" x="63" y="-187" font-family="Helvetica,sans-Serif" font-size="20.00" fill="#212121">(4)</text>
</a>
</g>
</g>
<!-- 2 -->
<g id="node2" class="node">
<title>2</title>
<g id="a_node2"><a xlink:title="name: b&#10;category: campaign&#10;amount: 2&#10;inbound: 2&#10;outbound: 2&#10;id: 2">
<path fill="#86a3d0" stroke="#0d47a1" d="M69,-122C69,-122 57,-122 57,-122 51,-122 45,-116 45,-110 45,-110 45,-98 45,-98 45,-92 51,-86 57,-86 57,-86 69,-86 69,-86 75,-86 81,-92 81,-98 81,-98 81,-110 81,-110 81,-116 75,-122 69,-122"/>
<text text-anchor="middle" x="63" y="-106" font-family="Helvetica,sans-Serif" font-size="10.00" fill="#212121">b</text>
<text text-anchor="middle" x="63" y="-96" font-family="Helvetica,sans-Serif" font-size="10.00" fill="#212121">(2)</text>
</a>
</g>
</g>
<!-- 3 -->
<g id="node3" class="node">
<title>3</title>
<g id="a_node3"><a xlink:title="name: c&#10;category: sale&#10;amount: 2&#10;inbound: 2&#10;outbound: 0&#10;id: 3">
<path fill="#db8d8d" stroke="#b71c1c" d="M24,-36C24,-36 12,-36 12,-36 6,-36 0,-30 0,-24 0,-24 0,-12 0,-12 0,-6 6,0 12,0 12,0 24,0 24,0 30,0 36,-6 36,-12 36,-12 36,-24 36,-24 36,-30 30,-36 24,-36"/>
<text text-anchor="middle" x="18" y="-20" font-family="Helvetica,sans-Serif" font-size="10.00" fill="#212121">c</text>
<text text-anchor="middle" x="18" y="-10" font-family="Helvetica,sans-Serif" font-size="10.00" fill="#212121">(2)</text>
</a>
</g>
</g>
<!-- 4 -->
<g id="node4" class="node">
<title>4</title>
<g id="a_node4"><a xlink:title="name: d&#10;category: sale&#10;amount: 2&#10;inbound: 2&#10;outbound: 0&#10;id: 4">
<path fill="#db8d8d" stroke="#b71c1c" d="M93,-36C93,-36 81,-36 81,-36 75,-36 69,-30 69,-24 69,-24 69,-12 69,-12 69,-6 75,0 81,0 81,0 93,0 93,0 99,0 105,-6 105,-12 105,-12 105,-24 105,-24 105,-30 99,-36 93,-36"/>
<text text-anchor="middle" x="87" y="-20" font-family="Helvetica,sans-Serif" font-size="10.00" fill="#212121">d</text>
<text text-anchor="middle" x="87" y="-10" font-family="Helvetica,sans-Serif" font-size="10.00" fill="#212121">(2)</text>
</a>
</g>
</g>
</g>
</svg>
