<?xml version="1.0" encoding="UTF-8" standalone="no"?>
<!DOCTYPE svg PUBLIC "-//W3C//DTD SVG 1.1//EN"
 "http://www.w3.org/Graphics/SVG/1.1/DTD/svg11.dtd">
<!-- Generated by graphviz version 2.40.1 (20161225.0304)
 -->
<!-- Title: %3 Pages: 1 -->
<svg width="197pt" height="256pt"
 viewBox="0.00 0.00 197.17 256.23" xmlns="http://www.w3.org/2000/svg" xmlns:xlink="http://www.w3.org/1999/xlink">
<g id="graph0" class="graph" transform="scale(1 1) rotate(0) translate(4 252.2252)">
<title>%3</title>
<polygon fill="#ffffff" stroke="transparent" points="-4,4 -4,-252.2252 193.1705,-252.2252 193.1705,4 -4,4"/>
<!-- Case&#45;&gt;Event -->
<g id="edge3" class="edge">
<title>Case&#45;&gt;Event</title>
<path fill="none" stroke="#000000" stroke-opacity="0.627451" d="M81.625,-24.9703C87.7782,-25.8673 94.1643,-26.7984 100.4309,-27.7119"/>
<polygon fill="#000000" fill-opacity="0.627451" stroke="#000000" stroke-opacity="0.627451" points="100.4588,-29.4844 105.659,-28.4741 100.9638,-26.021 100.4588,-29.4844"/>
<text text-anchor="middle" x="97.3216" y="-20.4741" font-family="Helvetica,sans-Serif" font-size="10.00" fill="#212121"> &#160;n &#160;</text>
<text text-anchor="middle" x="89.9624" y="-26.9703" font-family="Helvetica,sans-Serif" font-size="10.00" fill="#212121"> &#160;1 &#160;</text>
</g>
<!-- Case&#45;&gt;Activity -->
<g id="edge2" class="edge">
<title>Case&#45;&gt;Activity</title>
<path fill="none" stroke="#000000" stroke-opacity="0.627451" d="M48.1603,-38.1257C54.666,-54.7426 64.1182,-78.8854 71.1218,-96.7741"/>
<polygon fill="#000000" fill-opacity="0.627451" stroke="#000000" stroke-opacity="0.627451" points="69.5753,-97.6245 73.0278,-101.6424 72.8345,-96.3485 69.5753,-97.6245"/>
<text text-anchor="middle" x="64.6904" y="-93.6424" font-family="Helvetica,sans-Serif" font-size="10.00" fill="#212121"> &#160;n &#160;</text>
<text text-anchor="middle" x="38.4386" y="-40.1257" font-family="Helvetica,sans-Serif" font-size="10.00" fill="#212121"> &#160;m &#160;</text>
</g>
<!-- Event&#45;&gt;Activity -->
<g id="edge1" class="edge">
<title>Event&#45;&gt;Activity</title>
<path fill="none" stroke="#000000" stroke-opacity="0.627451" d="M132.537,-53.6711C122.4895,-66.6055 109.1587,-83.7664 98.503,-97.4837"/>
<polygon fill="#000000" fill-opacity="0.627451" stroke="#000000" stroke-opacity="0.627451" points="96.9738,-96.5995 95.2885,-101.6218 99.7379,-98.7467 96.9738,-96.5995"/>
<text text-anchor="middle" x="86.9511" y="-93.6218" font-family="Helvetica,sans-Serif" font-size="10.00" fill="#212121"> &#160;1 &#160;</text>
<text text-anchor="middle" x="124.1996" y="-55.6711" font-family="Helvetica,sans-Serif" font-size="10.00" fill="#212121"> &#160;n &#160;</text>
</g>
<!-- Category&#45;&gt;Activity -->
<g id="edge4" class="edge">
<title>Category&#45;&gt;Activity</title>
<path fill="none" stroke="#000000" stroke-opacity="0.627451" d="M66.0656,-210.0697C68.985,-191.9685 73.3775,-164.7338 76.5464,-145.0852"/>
<polygon fill="#000000" fill-opacity="0.627451" stroke="#000000" stroke-opacity="0.627451" points="78.2962,-145.2262 77.3647,-140.0113 74.8409,-144.6689 78.2962,-145.2262"/>
<text text-anchor="middle" x="69.0273" y="-142.0113" font-family="Helvetica,sans-Serif" font-size="10.00" fill="#212121"> &#160;n &#160;</text>
<text text-anchor="middle" x="57.7282" y="-202.0697" font-family="Helvetica,sans-Serif" font-size="10.00" fill="#212121"> &#160;1 &#160;</text>
</g>
<!-- Case -->
<g id="node1" class="node">
<title>Case</title>
<path fill="#8dae8f" stroke="#1b5e20" d="M69.5178,-38C69.5178,-38 11.8269,-38 11.8269,-38 5.8269,-38 -.1731,-32 -.1731,-26 -.1731,-26 -.1731,-12 -.1731,-12 -.1731,-6 5.8269,0 11.8269,0 11.8269,0 69.5178,0 69.5178,0 75.5178,0 81.5178,-6 81.5178,-12 81.5178,-12 81.5178,-26 81.5178,-26 81.5178,-32 75.5178,-38 69.5178,-38"/>
<text text-anchor="middle" x="40.6724" y="-16" font-family="Helvetica,sans-Serif" font-size="10.00" fill="#212121">Case</text>
</g>
<!-- Event -->
<g id="node2" class="node">
<title>Event</title>
<path fill="#ffb77f" stroke="#ff6f00" d="M176.9572,-53.5571C176.9572,-53.5571 117.8125,-53.5571 117.8125,-53.5571 111.8125,-53.5571 105.8125,-47.5571 105.8125,-41.5571 105.8125,-41.5571 105.8125,-27.5571 105.8125,-27.5571 105.8125,-21.5571 111.8125,-15.5571 117.8125,-15.5571 117.8125,-15.5571 176.9572,-15.5571 176.9572,-15.5571 182.9572,-15.5571 188.9572,-21.5571 188.9572,-27.5571 188.9572,-27.5571 188.9572,-41.5571 188.9572,-41.5571 188.9572,-47.5571 182.9572,-53.5571 176.9572,-53.5571"/>
<text text-anchor="middle" x="147.3849" y="-31.5571" font-family="Helvetica,sans-Serif" font-size="10.00" fill="#212121">Event</text>
</g>
<!-- Activity -->
<g id="node3" class="node">
<title>Activity</title>
<path fill="#c0bb8b" stroke="#827717" d="M113.1527,-139.6823C113.1527,-139.6823 47.8116,-139.6823 47.8116,-139.6823 41.8116,-139.6823 35.8116,-133.6823 35.8116,-127.6823 35.8116,-127.6823 35.8116,-113.6823 35.8116,-113.6823 35.8116,-107.6823 41.8116,-101.6823 47.8116,-101.6823 47.8116,-101.6823 113.1527,-101.6823 113.1527,-101.6823 119.1527,-101.6823 125.1527,-107.6823 125.1527,-113.6823 125.1527,-113.6823 125.1527,-127.6823 125.1527,-127.6823 125.1527,-133.6823 119.1527,-139.6823 113.1527,-139.6823"/>
<text text-anchor="middle" x="80.4821" y="-117.6823" font-family="Helvetica,sans-Serif" font-size="10.00" fill="#212121">Activity</text>
</g>
<!-- Category -->
<g id="node4" class="node">
<title>Category</title>
<path fill="#db8d8d" stroke="#b71c1c" d="M100.0533,-248.2252C100.0533,-248.2252 25.8992,-248.2252 25.8992,-248.2252 19.8992,-248.2252 13.8992,-242.2252 13.8992,-236.2252 13.8992,-236.2252 13.8992,-222.2252 13.8992,-222.2252 13.8992,-216.2252 19.8992,-210.2252 25.8992,-210.2252 25.8992,-210.2252 100.0533,-210.2252 100.0533,-210.2252 106.0533,-210.2252 112.0533,-216.2252 112.0533,-222.2252 112.0533,-222.2252 112.0533,-236.2252 112.0533,-236.2252 112.0533,-242.2252 106.0533,-248.2252 100.0533,-248.2252"/>
<text text-anchor="middle" x="62.9762" y="-226.2252" font-family="Helvetica,sans-Serif" font-size="10.00" fill="#212121">Category</text>
</g>
</g>
</svg>
